<svg width="23" height="21" viewBox="0 0 23 21" fill="none" xmlns="http://www.w3.org/2000/svg">
<path d="M7.97305 21L6.07305 17.8L2.47305 17L2.82305 13.3L0.373047 10.5L2.82305 7.7L2.47305 4L6.07305 3.2L7.97305 0L11.373 1.45L14.773 0L16.673 3.2L20.273 4L19.923 7.7L22.373 10.5L19.923 13.3L20.273 17L16.673 17.8L14.773 21L11.373 19.55L7.97305 21ZM8.82305 18.45L11.373 17.35L13.973 18.45L15.373 16.05L18.123 15.4L17.873 12.6L19.723 10.5L17.873 8.35L18.123 5.55L15.373 4.95L13.923 2.55L11.373 3.65L8.77305 2.55L7.37305 4.95L4.62305 5.55L4.87305 8.35L3.02305 10.5L4.87305 12.6L4.62305 15.45L7.37305 16.05L8.82305 18.45ZM10.323 14.05L15.973 8.4L14.573 6.95L10.323 11.2L8.17305 9.1L6.77305 10.5L10.323 14.05Z" fill="white"/>
</svg>
