<svg width="19" height="18" viewBox="0 0 19 18" fill="none" xmlns="http://www.w3.org/2000/svg">
<path d="M17.323 18C15.2397 18 13.1814 17.5458 11.148 16.6375C9.11471 15.7292 7.26471 14.4417 5.59805 12.775C3.93138 11.1083 2.64388 9.25833 1.73555 7.225C0.827214 5.19167 0.373047 3.13333 0.373047 1.05C0.373047 0.75 0.473047 0.5 0.673047 0.3C0.873047 0.1 1.12305 0 1.42305 0H5.47305C5.70638 0 5.91471 0.0791667 6.09805 0.2375C6.28138 0.395833 6.38971 0.583333 6.42305 0.8L7.07305 4.3C7.10638 4.56667 7.09805 4.79167 7.04805 4.975C6.99805 5.15833 6.90638 5.31667 6.77305 5.45L4.34805 7.9C4.68138 8.51667 5.07721 9.1125 5.53555 9.6875C5.99388 10.2625 6.49805 10.8167 7.04805 11.35C7.56471 11.8667 8.10638 12.3458 8.67305 12.7875C9.23971 13.2292 9.83971 13.6333 10.473 14L12.823 11.65C12.973 11.5 13.1689 11.3875 13.4105 11.3125C13.6522 11.2375 13.8897 11.2167 14.123 11.25L17.573 11.95C17.8064 12.0167 17.998 12.1375 18.148 12.3125C18.298 12.4875 18.373 12.6833 18.373 12.9V16.95C18.373 17.25 18.273 17.5 18.073 17.7C17.873 17.9 17.623 18 17.323 18ZM3.39805 6L5.04805 4.35L4.62305 2H2.39805C2.48138 2.68333 2.59805 3.35833 2.74805 4.025C2.89805 4.69167 3.11471 5.35 3.39805 6ZM12.348 14.95C12.998 15.2333 13.6605 15.4583 14.3355 15.625C15.0105 15.7917 15.6897 15.9 16.373 15.95V13.75L14.023 13.275L12.348 14.95Z" fill="#EF4868"/>
</svg>
