<svg width="19" height="21" viewBox="0 0 19 21" fill="none" xmlns="http://www.w3.org/2000/svg">
<path d="M8.43535 16.85L4.88535 13.3L6.33535 11.85L8.43535 13.95L12.6354 9.75L14.0854 11.2L8.43535 16.85ZM2.48535 20.5C1.93535 20.5 1.46452 20.3042 1.07285 19.9125C0.681185 19.5208 0.485352 19.05 0.485352 18.5V4.5C0.485352 3.95 0.681185 3.47917 1.07285 3.0875C1.46452 2.69583 1.93535 2.5 2.48535 2.5H3.48535V0.5H5.48535V2.5H13.4854V0.5H15.4854V2.5H16.4854C17.0354 2.5 17.5062 2.69583 17.8979 3.0875C18.2895 3.47917 18.4854 3.95 18.4854 4.5V18.5C18.4854 19.05 18.2895 19.5208 17.8979 19.9125C17.5062 20.3042 17.0354 20.5 16.4854 20.5H2.48535ZM2.48535 18.5H16.4854V8.5H2.48535V18.5ZM2.48535 6.5H16.4854V4.5H2.48535V6.5Z" fill="#EF4868"/>
</svg>
