<svg width="21" height="12" viewBox="0 0 21 12" fill="none" xmlns="http://www.w3.org/2000/svg">
<path d="M9.37305 12C7.70638 12 6.28971 11.4167 5.12305 10.25C3.95638 9.08333 3.37305 7.66667 3.37305 6C3.37305 5.81667 3.38138 5.63333 3.39805 5.45C3.41471 5.26667 3.43971 5.08333 3.47305 4.9C3.38971 4.93333 3.28971 4.95833 3.17305 4.975C3.05638 4.99167 2.95638 5 2.87305 5C2.17305 5 1.58138 4.75833 1.09805 4.275C0.614714 3.79167 0.373047 3.2 0.373047 2.5C0.373047 1.8 0.602214 1.20833 1.06055 0.725C1.51888 0.241667 2.09805 0 2.79805 0C3.34805 0 3.84388 0.154167 4.28555 0.4625C4.72721 0.770833 5.03971 1.16667 5.22305 1.65C5.77305 1.15 6.40221 0.75 7.11055 0.45C7.81888 0.15 8.57305 0 9.37305 0H20.373V4H15.373V6C15.373 7.66667 14.7897 9.08333 13.623 10.25C12.4564 11.4167 11.0397 12 9.37305 12ZM2.87305 3.5C3.15638 3.5 3.39388 3.40417 3.58555 3.2125C3.77721 3.02083 3.87305 2.78333 3.87305 2.5C3.87305 2.21667 3.77721 1.97917 3.58555 1.7875C3.39388 1.59583 3.15638 1.5 2.87305 1.5C2.58971 1.5 2.35221 1.59583 2.16055 1.7875C1.96888 1.97917 1.87305 2.21667 1.87305 2.5C1.87305 2.78333 1.96888 3.02083 2.16055 3.2125C2.35221 3.40417 2.58971 3.5 2.87305 3.5ZM9.37305 9.5C10.3397 9.5 11.1647 9.15833 11.848 8.475C12.5314 7.79167 12.873 6.96667 12.873 6C12.873 5.03333 12.5314 4.20833 11.848 3.525C11.1647 2.84167 10.3397 2.5 9.37305 2.5C8.40638 2.5 7.58138 2.84167 6.89805 3.525C6.21471 4.20833 5.87305 5.03333 5.87305 6C5.87305 6.96667 6.21471 7.79167 6.89805 8.475C7.58138 9.15833 8.40638 9.5 9.37305 9.5ZM9.37305 8C9.92305 8 10.3939 7.80417 10.7855 7.4125C11.1772 7.02083 11.373 6.55 11.373 6C11.373 5.45 11.1772 4.97917 10.7855 4.5875C10.3939 4.19583 9.92305 4 9.37305 4C8.82305 4 8.35221 4.19583 7.96055 4.5875C7.56888 4.97917 7.37305 5.45 7.37305 6C7.37305 6.55 7.56888 7.02083 7.96055 7.4125C8.35221 7.80417 8.82305 8 9.37305 8Z" fill="#EF4868"/>
</svg>
