<svg width="20" height="13" viewBox="0 0 20 13" fill="none" xmlns="http://www.w3.org/2000/svg">
<path d="M9 12.5C7.33333 12.5 5.91667 11.9167 4.75 10.75C3.58333 9.58333 3 8.16667 3 6.5C3 6.31667 3.00833 6.13333 3.025 5.95C3.04167 5.76667 3.06667 5.58333 3.1 5.4C3.01667 5.43333 2.91667 5.45833 2.8 5.475C2.68333 5.49167 2.58333 5.5 2.5 5.5C1.8 5.5 1.20833 5.25833 0.725 4.775C0.241667 4.29167 0 3.7 0 3C0 2.3 0.229167 1.70833 0.6875 1.225C1.14583 0.741667 1.725 0.5 2.425 0.5C2.975 0.5 3.47083 0.654167 3.9125 0.9625C4.35417 1.27083 4.66667 1.66667 4.85 2.15C5.4 1.65 6.02917 1.25 6.7375 0.95C7.44583 0.65 8.2 0.5 9 0.5H20V4.5H15V6.5C15 8.16667 14.4167 9.58333 13.25 10.75C12.0833 11.9167 10.6667 12.5 9 12.5ZM2.5 4C2.78333 4 3.02083 3.90417 3.2125 3.7125C3.40417 3.52083 3.5 3.28333 3.5 3C3.5 2.71667 3.40417 2.47917 3.2125 2.2875C3.02083 2.09583 2.78333 2 2.5 2C2.21667 2 1.97917 2.09583 1.7875 2.2875C1.59583 2.47917 1.5 2.71667 1.5 3C1.5 3.28333 1.59583 3.52083 1.7875 3.7125C1.97917 3.90417 2.21667 4 2.5 4ZM9 10C9.96667 10 10.7917 9.65833 11.475 8.975C12.1583 8.29167 12.5 7.46667 12.5 6.5C12.5 5.53333 12.1583 4.70833 11.475 4.025C10.7917 3.34167 9.96667 3 9 3C8.03333 3 7.20833 3.34167 6.525 4.025C5.84167 4.70833 5.5 5.53333 5.5 6.5C5.5 7.46667 5.84167 8.29167 6.525 8.975C7.20833 9.65833 8.03333 10 9 10ZM9 8.5C9.55 8.5 10.0208 8.30417 10.4125 7.9125C10.8042 7.52083 11 7.05 11 6.5C11 5.95 10.8042 5.47917 10.4125 5.0875C10.0208 4.69583 9.55 4.5 9 4.5C8.45 4.5 7.97917 4.69583 7.5875 5.0875C7.19583 5.47917 7 5.95 7 6.5C7 7.05 7.19583 7.52083 7.5875 7.9125C7.97917 8.30417 8.45 8.5 9 8.5Z" fill="#EF4868"/>
</svg>
