<svg width="21" height="17" viewBox="0 0 21 17" fill="none" xmlns="http://www.w3.org/2000/svg">
<path d="M7.37305 16.6001C6.82305 16.6001 6.35221 16.4043 5.96055 16.0126C5.56888 15.6209 5.37305 15.1501 5.37305 14.6001V11.6001H8.37305V9.3501C7.78971 9.31676 7.23555 9.1876 6.71055 8.9626C6.18555 8.7376 5.70638 8.4001 5.27305 7.9501V6.8501H4.12305L0.873047 3.6001C1.47305 2.83343 2.21471 2.29176 3.09805 1.9751C3.98138 1.65843 4.87305 1.5001 5.77305 1.5001C6.22305 1.5001 6.66055 1.53343 7.08555 1.6001C7.51055 1.66676 7.93971 1.79176 8.37305 1.9751V0.600098H20.373V13.6001C20.373 14.4334 20.0814 15.1418 19.498 15.7251C18.9147 16.3084 18.2064 16.6001 17.373 16.6001H7.37305ZM10.373 11.6001H16.373V13.6001C16.373 13.8834 16.4689 14.1209 16.6605 14.3126C16.8522 14.5043 17.0897 14.6001 17.373 14.6001C17.6564 14.6001 17.8939 14.5043 18.0855 14.3126C18.2772 14.1209 18.373 13.8834 18.373 13.6001V2.6001H10.373V3.2001L16.373 9.2001V10.6001H14.973L12.123 7.7501L11.923 7.9501C11.6897 8.18343 11.4439 8.39176 11.1855 8.5751C10.9272 8.75843 10.6564 8.9001 10.373 9.0001V11.6001ZM4.97305 4.8501H7.27305V7.0001C7.47305 7.13343 7.68138 7.2251 7.89805 7.2751C8.11471 7.3251 8.33971 7.3501 8.57305 7.3501C8.95638 7.3501 9.30221 7.29176 9.61055 7.1751C9.91888 7.05843 10.223 6.8501 10.523 6.5501L10.723 6.3501L9.32305 4.9501C8.83971 4.46676 8.29805 4.10426 7.69805 3.8626C7.09805 3.62093 6.45638 3.5001 5.77305 3.5001C5.43971 3.5001 5.12305 3.5251 4.82305 3.5751C4.52305 3.6251 4.22305 3.7001 3.92305 3.8001L4.97305 4.8501ZM14.373 13.6001H7.37305V14.6001H14.523C14.473 14.4501 14.4355 14.2918 14.4105 14.1251C14.3855 13.9584 14.373 13.7834 14.373 13.6001Z" fill="#EF4868"/>
</svg>
