<svg width="17" height="18" viewBox="0 0 17 18" fill="none" xmlns="http://www.w3.org/2000/svg">
<path d="M2.37291 16H14.3729L12.9479 6H3.79791L2.37291 16ZM8.37291 4C8.65624 4 8.89374 3.90417 9.08541 3.7125C9.27707 3.52083 9.37291 3.28333 9.37291 3C9.37291 2.71667 9.27707 2.47917 9.08541 2.2875C8.89374 2.09583 8.65624 2 8.37291 2C8.08957 2 7.85207 2.09583 7.66041 2.2875C7.46874 2.47917 7.37291 2.71667 7.37291 3C7.37291 3.28333 7.46874 3.52083 7.66041 3.7125C7.85207 3.90417 8.08957 4 8.37291 4ZM11.1979 4H12.9479C13.4479 4 13.8812 4.16667 14.2479 4.5C14.6146 4.83333 14.8396 5.24167 14.9229 5.725L16.3479 15.725C16.4312 16.325 16.2771 16.8542 15.8854 17.3125C15.4937 17.7708 14.9896 18 14.3729 18H2.37291C1.75624 18 1.25207 17.7708 0.860406 17.3125C0.46874 16.8542 0.314573 16.325 0.397906 15.725L1.82291 5.725C1.90624 5.24167 2.13124 4.83333 2.49791 4.5C2.86457 4.16667 3.29791 4 3.79791 4H5.54791C5.49791 3.83333 5.45624 3.67083 5.42291 3.5125C5.38957 3.35417 5.37291 3.18333 5.37291 3C5.37291 2.16667 5.66457 1.45833 6.24791 0.875C6.83124 0.291667 7.53957 0 8.37291 0C9.20624 0 9.91457 0.291667 10.4979 0.875C11.0812 1.45833 11.3729 2.16667 11.3729 3C11.3729 3.18333 11.3562 3.35417 11.3229 3.5125C11.2896 3.67083 11.2479 3.83333 11.1979 4Z" fill="#EF4868"/>
</svg>
