<svg width="21" height="16" viewBox="0 0 21 16" fill="none" xmlns="http://www.w3.org/2000/svg">
<path d="M15.373 11C14.673 11 14.0814 10.7583 13.598 10.275C13.1147 9.79167 12.873 9.2 12.873 8.5C12.873 7.8 13.1147 7.20833 13.598 6.725C14.0814 6.24167 14.673 6 15.373 6C16.073 6 16.6647 6.24167 17.148 6.725C17.6314 7.20833 17.873 7.8 17.873 8.5C17.873 9.2 17.6314 9.79167 17.148 10.275C16.6647 10.7583 16.073 11 15.373 11ZM10.373 16V14.6C10.373 14.2 10.4772 13.8292 10.6855 13.4875C10.8939 13.1458 11.1897 12.9 11.573 12.75C12.173 12.5 12.7939 12.3125 13.4355 12.1875C14.0772 12.0625 14.723 12 15.373 12C16.023 12 16.6689 12.0625 17.3105 12.1875C17.9522 12.3125 18.573 12.5 19.173 12.75C19.5564 12.9 19.8522 13.1458 20.0605 13.4875C20.2689 13.8292 20.373 14.2 20.373 14.6V16H10.373ZM8.37305 8C7.27305 8 6.33138 7.60833 5.54805 6.825C4.76471 6.04167 4.37305 5.1 4.37305 4C4.37305 2.9 4.76471 1.95833 5.54805 1.175C6.33138 0.391667 7.27305 0 8.37305 0C9.47305 0 10.4147 0.391667 11.198 1.175C11.9814 1.95833 12.373 2.9 12.373 4C12.373 5.1 11.9814 6.04167 11.198 6.825C10.4147 7.60833 9.47305 8 8.37305 8ZM0.373047 16V13.2C0.373047 12.6333 0.514714 12.1125 0.798047 11.6375C1.08138 11.1625 1.47305 10.8 1.97305 10.55C2.97305 10.05 4.01055 9.66667 5.08555 9.4C6.16055 9.13333 7.25638 9 8.37305 9C8.95638 9 9.53971 9.05 10.123 9.15C10.7064 9.25 11.2897 9.36667 11.873 9.5L11.023 10.35L10.173 11.2C9.87305 11.1167 9.57305 11.0625 9.27305 11.0375C8.97305 11.0125 8.67305 11 8.37305 11C7.40638 11 6.46055 11.1167 5.53555 11.35C4.61055 11.5833 3.72305 11.9167 2.87305 12.35C2.70638 12.4333 2.58138 12.55 2.49805 12.7C2.41471 12.85 2.37305 13.0167 2.37305 13.2V14H8.37305V16H0.373047ZM8.37305 6C8.92305 6 9.39388 5.80417 9.78555 5.4125C10.1772 5.02083 10.373 4.55 10.373 4C10.373 3.45 10.1772 2.97917 9.78555 2.5875C9.39388 2.19583 8.92305 2 8.37305 2C7.82305 2 7.35221 2.19583 6.96055 2.5875C6.56888 2.97917 6.37305 3.45 6.37305 4C6.37305 4.55 6.56888 5.02083 6.96055 5.4125C7.35221 5.80417 7.82305 6 8.37305 6Z" fill="#EF4868"/>
</svg>
