<svg width="23" height="17" viewBox="0 0 23 17" fill="none" xmlns="http://www.w3.org/2000/svg">
<path d="M4.37305 17V7.85L1.57305 10L0.373047 8.4L11.373 0L15.373 3.05V1H18.373V5.35L22.373 8.4L21.173 10L18.373 7.85V17H12.373V11H10.373V17H4.37305ZM6.37305 15H8.37305V9H14.373V15H16.373V6.325L11.373 2.525L6.37305 6.325V15ZM9.37305 7.025H13.373C13.373 6.49167 13.173 6.05417 12.773 5.7125C12.373 5.37083 11.9064 5.2 11.373 5.2C10.8397 5.2 10.373 5.37083 9.97305 5.7125C9.57305 6.05417 9.37305 6.49167 9.37305 7.025Z" fill="#EF4868"/>
</svg>
