<svg width="17" height="22" viewBox="0 0 17 22" fill="none" xmlns="http://www.w3.org/2000/svg">
<path d="M8.37305 11.6001C7.53971 11.6001 6.83138 11.3084 6.24805 10.7251C5.66471 10.1418 5.37305 9.43343 5.37305 8.6001C5.37305 7.76676 5.66471 7.05843 6.24805 6.4751C6.83138 5.89176 7.53971 5.6001 8.37305 5.6001C9.20638 5.6001 9.91471 5.89176 10.498 6.4751C11.0814 7.05843 11.373 7.76676 11.373 8.6001C11.373 9.43343 11.0814 10.1418 10.498 10.7251C9.91471 11.3084 9.20638 11.6001 8.37305 11.6001ZM2.37305 21.6001V13.8751C1.73971 13.1751 1.24805 12.3751 0.898047 11.4751C0.548047 10.5751 0.373047 9.61676 0.373047 8.6001C0.373047 6.36676 1.14805 4.4751 2.69805 2.9251C4.24805 1.3751 6.13971 0.600098 8.37305 0.600098C10.6064 0.600098 12.498 1.3751 14.048 2.9251C15.598 4.4751 16.373 6.36676 16.373 8.6001C16.373 9.61676 16.198 10.5751 15.848 11.4751C15.498 12.3751 15.0064 13.1751 14.373 13.8751V21.6001L8.37305 19.6001L2.37305 21.6001ZM8.37305 14.6001C10.0397 14.6001 11.4564 14.0168 12.623 12.8501C13.7897 11.6834 14.373 10.2668 14.373 8.6001C14.373 6.93343 13.7897 5.51676 12.623 4.3501C11.4564 3.18343 10.0397 2.6001 8.37305 2.6001C6.70638 2.6001 5.28971 3.18343 4.12305 4.3501C2.95638 5.51676 2.37305 6.93343 2.37305 8.6001C2.37305 10.2668 2.95638 11.6834 4.12305 12.8501C5.28971 14.0168 6.70638 14.6001 8.37305 14.6001ZM4.37305 18.6251L8.37305 17.6001L12.373 18.6251V15.5251C11.7897 15.8584 11.1605 16.1209 10.4855 16.3126C9.81055 16.5043 9.10638 16.6001 8.37305 16.6001C7.63971 16.6001 6.93555 16.5043 6.26055 16.3126C5.58555 16.1209 4.95638 15.8584 4.37305 15.5251V18.6251Z" fill="#EF4868"/>
</svg>
