<svg width="14" height="14" viewBox="0 0 14 14" fill="none" xmlns="http://www.w3.org/2000/svg">
<path d="M6.3335 10.3333H7.66683V6.33334H6.3335V10.3333ZM7.00016 5.00001C7.18905 5.00001 7.34739 4.93612 7.47516 4.80834C7.60294 4.68057 7.66683 4.52223 7.66683 4.33334C7.66683 4.14445 7.60294 3.98612 7.47516 3.85834C7.34739 3.73057 7.18905 3.66668 7.00016 3.66668C6.81127 3.66668 6.65294 3.73057 6.52516 3.85834C6.39739 3.98612 6.3335 4.14445 6.3335 4.33334C6.3335 4.52223 6.39739 4.68057 6.52516 4.80834C6.65294 4.93612 6.81127 5.00001 7.00016 5.00001ZM7.00016 13.6667C6.07794 13.6667 5.21127 13.4917 4.40016 13.1417C3.58905 12.7917 2.8835 12.3167 2.2835 11.7167C1.6835 11.1167 1.2085 10.4111 0.858496 9.60001C0.508496 8.7889 0.333496 7.92223 0.333496 7.00001C0.333496 6.07779 0.508496 5.21112 0.858496 4.40001C1.2085 3.5889 1.6835 2.88334 2.2835 2.28334C2.8835 1.68334 3.58905 1.20834 4.40016 0.858344C5.21127 0.508344 6.07794 0.333344 7.00016 0.333344C7.92239 0.333344 8.78905 0.508344 9.60016 0.858344C10.4113 1.20834 11.1168 1.68334 11.7168 2.28334C12.3168 2.88334 12.7918 3.5889 13.1418 4.40001C13.4918 5.21112 13.6668 6.07779 13.6668 7.00001C13.6668 7.92223 13.4918 8.7889 13.1418 9.60001C12.7918 10.4111 12.3168 11.1167 11.7168 11.7167C11.1168 12.3167 10.4113 12.7917 9.60016 13.1417C8.78905 13.4917 7.92239 13.6667 7.00016 13.6667ZM7.00016 12.3333C8.48905 12.3333 9.75016 11.8167 10.7835 10.7833C11.8168 9.75001 12.3335 8.4889 12.3335 7.00001C12.3335 5.51112 11.8168 4.25001 10.7835 3.21668C9.75016 2.18334 8.48905 1.66668 7.00016 1.66668C5.51127 1.66668 4.25016 2.18334 3.21683 3.21668C2.1835 4.25001 1.66683 5.51112 1.66683 7.00001C1.66683 8.4889 2.1835 9.75001 3.21683 10.7833C4.25016 11.8167 5.51127 12.3333 7.00016 12.3333Z" fill="#EF4868"/>
</svg>
