<svg width="17" height="21" viewBox="0 0 17 21" fill="none" xmlns="http://www.w3.org/2000/svg">
<path d="M8.48535 10.5C9.03535 10.5 9.50618 10.3042 9.89785 9.9125C10.2895 9.52083 10.4854 9.05 10.4854 8.5C10.4854 7.95 10.2895 7.47917 9.89785 7.0875C9.50618 6.69583 9.03535 6.5 8.48535 6.5C7.93535 6.5 7.46452 6.69583 7.07285 7.0875C6.68118 7.47917 6.48535 7.95 6.48535 8.5C6.48535 9.05 6.68118 9.52083 7.07285 9.9125C7.46452 10.3042 7.93535 10.5 8.48535 10.5ZM8.48535 17.85C10.5187 15.9833 12.027 14.2875 13.0104 12.7625C13.9937 11.2375 14.4854 9.88333 14.4854 8.7C14.4854 6.88333 13.9062 5.39583 12.7479 4.2375C11.5895 3.07917 10.1687 2.5 8.48535 2.5C6.80202 2.5 5.38119 3.07917 4.22285 4.2375C3.06452 5.39583 2.48535 6.88333 2.48535 8.7C2.48535 9.88333 2.97702 11.2375 3.96035 12.7625C4.94369 14.2875 6.45202 15.9833 8.48535 17.85ZM8.48535 20.5C5.80202 18.2167 3.79785 16.0958 2.47285 14.1375C1.14785 12.1792 0.485352 10.3667 0.485352 8.7C0.485352 6.2 1.28952 4.20833 2.89785 2.725C4.50619 1.24167 6.36869 0.5 8.48535 0.5C10.602 0.5 12.4645 1.24167 14.0729 2.725C15.6812 4.20833 16.4854 6.2 16.4854 8.7C16.4854 10.3667 15.8229 12.1792 14.4979 14.1375C13.1729 16.0958 11.1687 18.2167 8.48535 20.5Z" fill="#EF4868"/>
</svg>
