<svg width="21" height="16" viewBox="0 0 21 16" fill="none" xmlns="http://www.w3.org/2000/svg">
<path d="M2.37305 16C1.82305 16 1.35221 15.8042 0.960547 15.4125C0.56888 15.0208 0.373047 14.55 0.373047 14V2C0.373047 1.45 0.56888 0.979167 0.960547 0.5875C1.35221 0.195833 1.82305 0 2.37305 0H18.373C18.923 0 19.3939 0.195833 19.7855 0.5875C20.1772 0.979167 20.373 1.45 20.373 2V14C20.373 14.55 20.1772 15.0208 19.7855 15.4125C19.3939 15.8042 18.923 16 18.373 16H2.37305ZM10.373 9L2.37305 4V14H18.373V4L10.373 9ZM10.373 7L18.373 2H2.37305L10.373 7ZM2.37305 4V2V14V4Z" fill="#EF4868"/>
</svg>
