<svg width="19" height="18" viewBox="0 0 19 18" fill="none" xmlns="http://www.w3.org/2000/svg">
<path d="M4.37305 18V16H8.37305V12.9C7.55638 12.7167 6.82721 12.3708 6.18555 11.8625C5.54388 11.3542 5.07305 10.7167 4.77305 9.95C3.52305 9.8 2.47721 9.25417 1.63555 8.3125C0.79388 7.37083 0.373047 6.26667 0.373047 5V4C0.373047 3.45 0.56888 2.97917 0.960547 2.5875C1.35221 2.19583 1.82305 2 2.37305 2H4.37305V0H14.373V2H16.373C16.923 2 17.3939 2.19583 17.7855 2.5875C18.1772 2.97917 18.373 3.45 18.373 4V5C18.373 6.26667 17.9522 7.37083 17.1105 8.3125C16.2689 9.25417 15.223 9.8 13.973 9.95C13.673 10.7167 13.2022 11.3542 12.5605 11.8625C11.9189 12.3708 11.1897 12.7167 10.373 12.9V16H14.373V18H4.37305ZM4.37305 7.8V4H2.37305V5C2.37305 5.63333 2.55638 6.20417 2.92305 6.7125C3.28971 7.22083 3.77305 7.58333 4.37305 7.8ZM9.37305 11C10.2064 11 10.9147 10.7083 11.498 10.125C12.0814 9.54167 12.373 8.83333 12.373 8V2H6.37305V8C6.37305 8.83333 6.66471 9.54167 7.24805 10.125C7.83138 10.7083 8.53971 11 9.37305 11ZM14.373 7.8C14.973 7.58333 15.4564 7.22083 15.823 6.7125C16.1897 6.20417 16.373 5.63333 16.373 5V4H14.373V7.8Z" fill="#EF4868"/>
</svg>
