<svg width="17" height="16" viewBox="0 0 17 16" fill="none" xmlns="http://www.w3.org/2000/svg">
<path d="M8.37305 8C7.27305 8 6.33138 7.60833 5.54805 6.825C4.76471 6.04167 4.37305 5.1 4.37305 4C4.37305 2.9 4.76471 1.95833 5.54805 1.175C6.33138 0.391667 7.27305 0 8.37305 0C9.47305 0 10.4147 0.391667 11.198 1.175C11.9814 1.95833 12.373 2.9 12.373 4C12.373 5.1 11.9814 6.04167 11.198 6.825C10.4147 7.60833 9.47305 8 8.37305 8ZM0.373047 16V13.2C0.373047 12.6333 0.51888 12.1125 0.810547 11.6375C1.10221 11.1625 1.48971 10.8 1.97305 10.55C3.00638 10.0333 4.05638 9.64583 5.12305 9.3875C6.18971 9.12917 7.27305 9 8.37305 9C9.47305 9 10.5564 9.12917 11.623 9.3875C12.6897 9.64583 13.7397 10.0333 14.773 10.55C15.2564 10.8 15.6439 11.1625 15.9355 11.6375C16.2272 12.1125 16.373 12.6333 16.373 13.2V16H0.373047ZM2.37305 14H14.373V13.2C14.373 13.0167 14.3272 12.85 14.2355 12.7C14.1439 12.55 14.023 12.4333 13.873 12.35C12.973 11.9 12.0647 11.5625 11.148 11.3375C10.2314 11.1125 9.30638 11 8.37305 11C7.43971 11 6.51471 11.1125 5.59805 11.3375C4.68138 11.5625 3.77305 11.9 2.87305 12.35C2.72305 12.4333 2.60221 12.55 2.51055 12.7C2.41888 12.85 2.37305 13.0167 2.37305 13.2V14ZM8.37305 6C8.92305 6 9.39388 5.80417 9.78555 5.4125C10.1772 5.02083 10.373 4.55 10.373 4C10.373 3.45 10.1772 2.97917 9.78555 2.5875C9.39388 2.19583 8.92305 2 8.37305 2C7.82305 2 7.35221 2.19583 6.96055 2.5875C6.56888 2.97917 6.37305 3.45 6.37305 4C6.37305 4.55 6.56888 5.02083 6.96055 5.4125C7.35221 5.80417 7.82305 6 8.37305 6Z" fill="#EF4868"/>
</svg>
