<svg width="210" height="61" viewBox="0 0 210 61" fill="none" xmlns="http://www.w3.org/2000/svg">
<rect width="210" height="60" transform="translate(0 0.183594)" fill="#31393E"/>
<path d="M36.4601 34.7636L30.9662 34.7694L32.3215 28.2321L46.5743 28.2149L42.9587 45.4958L36.9275 45.503L36.9247 42.9639C34.7228 45.1037 31.75 46.1751 28.0047 46.1794C23.6524 46.1851 20.4016 44.6068 18.2497 41.4445C16.0421 38.3108 15.4592 34.3428 16.501 29.5404C17.4316 24.9879 19.3769 21.4608 22.3341 18.959C25.2913 16.4573 29.0707 15.205 33.6697 15.1992C37.8282 15.1949 41.0661 16.2318 43.382 18.3099C45.7249 20.444 46.9121 23.0376 46.9434 26.0908L37.6487 26.1023C37.2339 24.1607 35.662 23.1898 32.9357 23.1942C29.2175 23.1985 26.8661 25.6025 25.8799 30.405C24.811 35.6511 26.3159 38.2721 30.3918 38.2678C33.2008 38.2649 35.2245 37.0959 36.4601 34.7636Z" fill="white"/>
<path d="M60.1445 46.1835C55.2961 46.1892 51.6321 44.6669 49.1495 41.6166C46.6398 38.595 45.9045 34.502 46.9463 29.3377C47.8498 24.8685 49.8008 21.3902 52.8007 18.9028C55.7992 16.4154 59.5986 15.1688 64.199 15.1631C69.0459 15.1574 72.7527 16.6797 75.3165 19.73C77.8533 22.7803 78.6014 26.8589 77.5611 31.9672C76.602 36.5758 74.6367 40.0957 71.6653 42.5271C68.6939 44.9599 64.8531 46.1777 60.143 46.1835H60.1445ZM61.2091 38.19C64.7619 38.1857 67.0307 35.8103 68.0169 31.0625C68.5642 28.453 68.3832 26.4827 67.4725 25.1514C66.5619 23.8201 65.1154 23.1552 63.133 23.158C59.6899 23.1623 57.4481 25.496 56.4078 30.1606C55.8591 32.826 56.0272 34.8309 56.9108 36.1751C57.793 37.5207 59.2267 38.1914 61.2091 38.1885V38.19Z" fill="white"/>
<path d="M91.2596 15.7993L86.6992 37.37L99.3815 37.3556L97.6556 45.4338L75.6771 45.4597L81.9221 15.8108L91.2582 15.7993H91.2596Z" fill="white"/>
<path d="M108.354 45.4194L99.0181 45.4309L105.263 15.782L114.599 15.7705L108.354 45.4194Z" fill="white"/>
<path d="M139.793 45.3835L130.209 45.395L129.874 41.5232L119.256 41.5361L117.32 45.4093L107.488 45.4208L123.813 15.7605L135.504 15.7461L139.794 45.382L139.793 45.3835ZM126.181 27.8311L122.718 34.6628L129.245 34.6556L128.659 27.8282C128.604 27.1906 128.45 25.72 128.201 23.4165C127.377 25.3323 126.703 26.8043 126.181 27.8311Z" fill="white"/>
<path d="M139.884 15.7421L165.498 15.7119L163.772 23.8318L155.633 23.8418L151.114 45.3708L141.778 45.3823L146.297 23.8533L138.158 23.8634L139.884 15.7435V15.7421Z" fill="white"/>
<path d="M182.57 26.0992L184.747 15.6887L194.083 15.6772L187.838 45.3261L178.502 45.3376L180.804 34.4273L172.334 34.4374L170.033 45.3477L160.697 45.3591L166.942 15.7103L176.278 15.6988L174.1 26.1093L182.57 26.0992Z" fill="white"/>
<path d="M194.722 42.507C195.148 42.089 195.671 41.8794 196.289 41.8779C196.908 41.8779 197.431 42.0862 197.859 42.5026C198.279 42.9206 198.49 43.4289 198.491 44.0278C198.491 44.6267 198.282 45.1365 197.861 45.5544C197.435 45.9723 196.912 46.182 196.294 46.1834C195.675 46.1834 195.152 45.9752 194.725 45.5587C194.297 45.1408 194.083 44.6324 194.083 44.0336C194.083 43.4347 194.296 42.9249 194.722 42.507ZM196.295 45.7569C196.794 45.7569 197.209 45.5889 197.538 45.2557C197.874 44.9168 198.042 44.5075 198.041 44.0292C198.041 43.5453 197.871 43.1331 197.535 42.7942C197.204 42.461 196.79 42.2958 196.291 42.2958C195.786 42.2958 195.369 42.4639 195.038 42.7971C194.702 43.1374 194.534 43.5481 194.535 44.0336C194.535 44.5118 194.705 44.9211 195.041 45.2586C195.372 45.5918 195.789 45.7569 196.295 45.7569ZM197.149 44.4673L197.176 44.8033C197.182 44.9369 197.219 45.0546 197.284 45.158H196.878C196.824 45.0862 196.794 44.9685 196.787 44.8048L196.768 44.5692C196.756 44.4414 196.727 44.3538 196.683 44.3064C196.637 44.2576 196.56 44.2346 196.453 44.2346H195.832V45.1624H195.436L195.433 42.8559H196.406C196.659 42.8559 196.855 42.9105 196.996 43.0225C197.137 43.1345 197.209 43.294 197.209 43.4993C197.209 43.7664 197.098 43.9474 196.875 44.045C197.038 44.1054 197.127 44.2475 197.146 44.4716L197.149 44.4673ZM195.832 43.8684H196.445C196.686 43.8684 196.805 43.7578 196.805 43.5395C196.805 43.3212 196.673 43.2121 196.408 43.2135H195.831V43.8684H195.832Z" fill="white"/>
</svg>
