<svg width="210" height="60" viewBox="0 0 210 60" fill="none" xmlns="http://www.w3.org/2000/svg">
<g clip-path="url(#clip0_0_312)">
<path d="M210 0H0V60H210V0Z" fill="#EF4868"/>
<path d="M190.297 41.0704C190.724 40.6525 191.247 40.4428 191.865 40.4414C192.484 40.4414 193.007 40.6496 193.434 41.0661C193.855 41.484 194.066 41.9924 194.067 42.5913C194.067 43.1901 193.857 43.6999 193.437 44.1179C193.011 44.5358 192.488 44.7454 191.869 44.7469C191.251 44.7469 190.728 44.5386 190.3 44.1222C189.873 43.7043 189.659 43.1959 189.659 42.597C189.659 41.9981 189.871 41.4883 190.297 41.0704ZM191.871 44.3203C192.37 44.3203 192.784 44.1523 193.114 43.8191C193.45 43.4802 193.618 43.0709 193.617 42.5927C193.617 42.1087 193.447 41.6965 193.111 41.3576C192.78 41.0244 192.365 40.8593 191.867 40.8593C191.362 40.8593 190.944 41.0273 190.614 41.3605C190.278 41.7009 190.109 42.1116 190.111 42.597C190.111 43.0752 190.28 43.4845 190.617 43.822C190.947 44.1552 191.365 44.3203 191.871 44.3203ZM192.724 43.0307L192.752 43.3668C192.757 43.5003 192.794 43.6181 192.86 43.7215H192.454C192.4 43.6497 192.37 43.5319 192.362 43.3682L192.344 43.1327C192.331 43.0049 192.303 42.9173 192.258 42.8699C192.213 42.821 192.136 42.7981 192.029 42.7981H191.408V43.7258H191.011L191.009 41.4194H191.982C192.234 41.4194 192.431 41.4739 192.572 41.586C192.713 41.698 192.784 41.8574 192.784 42.0628C192.784 42.3299 192.673 42.5108 192.451 42.6085C192.613 42.6688 192.703 42.811 192.722 43.035L192.724 43.0307ZM191.408 42.4318H192.02C192.261 42.4318 192.381 42.3213 192.381 42.103C192.381 41.8847 192.248 41.7755 191.983 41.777H191.406V42.4318H191.408Z" fill="white"/>
<path d="M36.418 34.1842L30.9241 34.1899L32.2794 27.6526L46.5322 27.6354L42.9167 44.9163L36.8855 44.9235L36.8826 42.3845C34.6808 44.5243 31.7079 45.5956 27.9627 45.5999C23.6103 45.6057 20.3595 44.0274 18.2076 40.865C16 37.7314 15.4172 33.7634 16.4589 28.961C17.3896 24.4084 19.3349 20.8813 22.292 18.3796C25.2492 15.8778 29.0287 14.6255 33.6276 14.6198C37.7861 14.6155 41.0241 15.6524 43.3399 17.7304C45.6828 19.8645 46.87 22.4582 46.9013 25.5114L37.6066 25.5229C37.1919 23.5812 35.6199 22.6104 32.8936 22.6147C29.1755 22.619 26.824 25.0231 25.8378 29.8255C24.7689 35.0717 26.2739 37.6926 30.3498 37.6883C33.1587 37.6854 35.1824 36.5164 36.418 34.1842Z" fill="white"/>
<path d="M60.1024 45.6042C55.2541 45.61 51.59 44.0877 49.1074 41.0374C46.5978 38.0157 45.8624 33.9228 46.9042 28.7585C47.8077 24.2892 49.7587 20.8109 52.7587 18.3236C55.7572 15.8362 59.5566 14.5896 64.1569 14.5839C69.0038 14.5781 72.7106 16.1004 75.2744 19.1508C77.8112 22.2011 78.5594 26.2797 77.519 31.388C76.5599 35.9966 74.5946 39.5165 71.6232 41.9479C68.6518 44.3807 64.8111 45.5985 60.101 45.6042H60.1024ZM61.167 37.6108C64.7199 37.6065 66.9887 35.2311 67.9749 30.4833C68.5221 27.8738 68.3411 25.9034 67.4305 24.5722C66.5198 23.2409 65.0733 22.5759 63.0909 22.5788C59.6478 22.5831 57.406 24.9168 56.3657 29.5814C55.817 32.2468 55.9852 34.2517 56.8688 35.5959C57.7509 36.9415 59.1846 37.6122 61.167 37.6093V37.6108Z" fill="white"/>
<path d="M91.2175 15.2201L86.657 36.7907L99.3393 36.7764L97.6135 44.8546L75.635 44.8804L81.88 15.2316L91.216 15.2201H91.2175Z" fill="white"/>
<path d="M108.312 44.8402L98.9759 44.8517L105.221 15.2029L114.557 15.1914L108.312 44.8402Z" fill="white"/>
<path d="M139.751 44.8043L130.167 44.8158L129.832 40.944L119.214 40.9569L117.278 44.8302L107.446 44.8417L123.77 15.1813L135.462 15.167L139.752 44.8029L139.751 44.8043ZM126.139 27.252L122.676 34.0836L129.203 34.0765L128.617 27.2491C128.562 26.6115 128.408 25.1409 128.159 22.8373C127.335 24.7531 126.661 26.2251 126.139 27.252Z" fill="white"/>
<path d="M139.842 15.1626L165.456 15.1325L163.73 23.2524L155.591 23.2624L151.072 44.7914L141.736 44.8029L146.255 23.2739L138.116 23.2839L139.842 15.1641V15.1626Z" fill="white"/>
<path d="M182.528 25.52L184.705 15.1095L194.041 15.098L187.796 44.7469L178.46 44.7584L180.762 33.8481L172.292 33.8582L169.991 44.7684L160.655 44.7799L166.899 15.131L176.236 15.1196L174.058 25.53L182.528 25.52Z" fill="white"/>
</g>
<defs>
<clipPath id="clip0_0_312">
<rect width="210" height="60" fill="white"/>
</clipPath>
</defs>
</svg>
