<svg width="19" height="21" viewBox="0 0 19 21" fill="none" xmlns="http://www.w3.org/2000/svg">
<path d="M6.37305 15.1001C5.67305 15.1001 5.08138 14.8584 4.59805 14.3751C4.11471 13.8918 3.87305 13.3001 3.87305 12.6001C3.87305 11.9001 4.11471 11.3084 4.59805 10.8251C5.08138 10.3418 5.67305 10.1001 6.37305 10.1001C7.07305 10.1001 7.66471 10.3418 8.14805 10.8251C8.63138 11.3084 8.87305 11.9001 8.87305 12.6001C8.87305 13.3001 8.63138 13.8918 8.14805 14.3751C7.66471 14.8584 7.07305 15.1001 6.37305 15.1001ZM2.37305 20.6001C1.82305 20.6001 1.35221 20.4043 0.960547 20.0126C0.56888 19.6209 0.373047 19.1501 0.373047 18.6001V4.6001C0.373047 4.0501 0.56888 3.57926 0.960547 3.1876C1.35221 2.79593 1.82305 2.6001 2.37305 2.6001H3.37305V0.600098H5.37305V2.6001H13.373V0.600098H15.373V2.6001H16.373C16.923 2.6001 17.3939 2.79593 17.7855 3.1876C18.1772 3.57926 18.373 4.0501 18.373 4.6001V18.6001C18.373 19.1501 18.1772 19.6209 17.7855 20.0126C17.3939 20.4043 16.923 20.6001 16.373 20.6001H2.37305ZM2.37305 18.6001H16.373V8.6001H2.37305V18.6001ZM2.37305 6.6001H16.373V4.6001H2.37305V6.6001Z" fill="#EF4868"/>
</svg>
