<svg width="33" height="32" viewBox="0 0 33 32" fill="none" xmlns="http://www.w3.org/2000/svg">
<path d="M28.5635 0H4.18257C2.07971 0 0.373047 1.70667 0.373047 3.80952V28.1905C0.373047 30.2933 2.07971 32 4.18257 32H28.5635C30.6664 32 32.373 30.2933 32.373 28.1905V3.80952C32.373 1.70667 30.6664 0 28.5635 0ZM10.2778 12.1905V26.6667H5.70638V12.1905H10.2778ZM5.70638 7.97714C5.70638 6.91048 6.62067 6.09524 7.99209 6.09524C9.36352 6.09524 10.2245 6.91048 10.2778 7.97714C10.2778 9.04381 9.42448 9.90476 7.99209 9.90476C6.62067 9.90476 5.70638 9.04381 5.70638 7.97714ZM27.0397 26.6667H22.4683C22.4683 26.6667 22.4683 19.6114 22.4683 19.0476C22.4683 17.5238 21.7064 16 19.8016 15.9695H19.7407C17.8969 15.9695 17.135 17.539 17.135 19.0476C17.135 19.741 17.135 26.6667 17.135 26.6667H12.5635V12.1905H17.135V14.141C17.135 14.141 18.6054 12.1905 21.5616 12.1905C24.5864 12.1905 27.0397 14.2705 27.0397 18.4838V26.6667Z" fill="#EF4868"/>
</svg>
