<svg width="33" height="32" viewBox="0 0 33 32" fill="none" xmlns="http://www.w3.org/2000/svg">
<path fill-rule="evenodd" clip-rule="evenodd" d="M16.4229 32C13.8824 32.0022 11.6721 30.26 11.0788 27.7877C11.0705 27.755 11.0469 27.7283 11.0156 27.7162C10.2935 27.4251 9.59613 27.0759 8.93044 26.6722C8.911 26.6603 8.8961 26.6423 8.88811 26.6209C7.91445 24.0958 7.66412 21.3488 8.16529 18.6889C8.17219 18.6509 8.20011 18.62 8.23731 18.6093H8.25753C8.28819 18.6062 8.31859 18.6171 8.3403 18.639C9.68287 20.0915 11.3097 21.2522 13.1196 22.0488C13.1325 22.0546 13.1464 22.0576 13.1606 22.0577C13.182 22.0577 13.2028 22.0511 13.22 22.0387C15.6098 20.3201 18.9293 20.7975 20.739 23.1201C20.7585 23.1448 20.7882 23.1593 20.8198 23.1593H20.8337C21.3342 23.091 21.8447 22.9949 22.3457 22.8747C25.3349 22.1486 28.0198 20.499 30.0194 18.1597C30.039 18.1367 30.0677 18.1235 30.0977 18.1237C30.1148 18.1237 30.1314 18.1278 30.1464 18.1357C30.1885 18.1584 30.2092 18.2072 30.1964 18.2533C28.9917 22.5163 25.9045 25.9936 21.8162 27.6922C21.7847 27.7041 21.761 27.7309 21.753 27.7637C21.1738 30.2427 18.9665 31.997 16.4229 32ZM6.17687 24.4607C6.14933 24.461 6.12286 24.4501 6.10358 24.4304C2.99843 21.2712 1.53197 16.8498 2.13308 12.4593C2.13762 12.4265 2.12582 12.3934 2.10149 12.3709C0.252017 10.6303 -0.163 7.84722 1.0981 5.64206C2.35921 3.43688 4.96708 2.38551 7.40328 3.10009C7.43517 3.10943 7.46962 3.10258 7.49553 3.08176C8.10895 2.59399 8.76178 2.15804 9.44729 1.77841C9.46239 1.77011 9.47934 1.76576 9.49658 1.76576C12.1823 2.18154 14.6976 3.34271 16.757 5.11739C16.7866 5.14249 16.7993 5.18222 16.79 5.21984C16.7806 5.25769 16.7508 5.28705 16.7128 5.29572C14.7791 5.732 12.9561 6.56299 11.358 7.73673C11.3287 7.75819 11.3128 7.79351 11.3162 7.82969C11.3357 8.01455 11.3453 8.20031 11.3454 8.38618C11.3266 11.115 9.31777 13.4202 6.61916 13.8095C6.58283 13.8145 6.55197 13.8386 6.53829 13.8727C6.34874 14.3451 6.17435 14.8339 6.02902 15.3272C5.16425 18.2777 5.24868 21.4256 6.27038 24.3254C6.28052 24.3561 6.27567 24.3898 6.25731 24.4163C6.23893 24.443 6.20915 24.4594 6.17687 24.4607ZM24.1591 19.3441C24.1265 19.3441 24.0959 19.3287 24.0766 19.3025C24.0573 19.2763 24.0516 19.2424 24.0612 19.2113C24.6394 17.3449 24.8329 15.3805 24.6298 13.437C24.626 13.4013 24.6037 13.3701 24.5711 13.3549C22.6402 12.4533 21.4015 10.5186 21.3897 8.38618C21.3864 7.66818 21.5249 6.95661 21.7973 6.29237C21.811 6.25856 21.8056 6.22002 21.7833 6.19118C21.4542 5.76088 21.1026 5.3482 20.7301 4.95487C18.6101 2.72632 15.8431 1.22188 12.8213 0.654673C12.7742 0.645793 12.7394 0.605302 12.738 0.557279C12.7364 0.509108 12.7684 0.466296 12.815 0.454205C17.1406 -0.664321 21.74 0.309279 25.2428 3.08491C25.2607 3.09913 25.283 3.10691 25.3058 3.10705C25.3161 3.10721 25.3264 3.10571 25.3362 3.10263C25.8332 2.95281 26.3494 2.87654 26.8685 2.87623C29.8956 2.87623 32.3655 5.33556 32.373 8.35835C32.3725 9.87863 31.7447 11.3313 30.638 12.3727C30.6137 12.3953 30.6018 12.4283 30.6064 12.4613C30.693 13.0979 30.7369 13.7398 30.7378 14.3824C30.7378 14.4425 30.7341 14.5014 30.7296 14.5601L30.7226 14.6727C30.7225 14.6958 30.7145 14.7181 30.6999 14.7359C29.0017 16.8477 26.7477 18.4423 24.1919 19.3397L24.1591 19.3441Z" fill="#EF4868"/>
</svg>
