<svg width="33" height="24" viewBox="0 0 33 24" fill="none" xmlns="http://www.w3.org/2000/svg">
<path d="M31.7037 4.24802C31.5229 3.56705 31.1664 2.94553 30.6699 2.4457C30.1733 1.94587 29.5541 1.58527 28.8744 1.40002C26.3797 0.726685 16.373 0.726685 16.373 0.726685C16.373 0.726685 6.36638 0.726685 3.87038 1.40002C3.19092 1.5856 2.57211 1.94633 2.07582 2.44613C1.57953 2.94593 1.22317 3.56727 1.04238 4.24802C0.373047 6.76002 0.373047 12 0.373047 12C0.373047 12 0.373047 17.24 1.04238 19.752C1.22316 20.433 1.57968 21.0545 2.07624 21.5543C2.57279 22.0542 3.19195 22.4148 3.87171 22.6C6.36638 23.2734 16.373 23.2734 16.373 23.2734C16.373 23.2734 26.3797 23.2734 28.8757 22.6C29.5555 22.4149 30.1748 22.0543 30.6713 21.5545C31.1679 21.0546 31.5244 20.433 31.705 19.752C32.373 17.24 32.373 12 32.373 12C32.373 12 32.373 6.76002 31.7037 4.24802ZM13.0997 16.7574V7.24268L21.4637 12L13.0997 16.7574Z" fill="#EF4868"/>
</svg>
