<svg width="21" height="20" viewBox="0 0 21 20" fill="none" xmlns="http://www.w3.org/2000/svg">
<path d="M3.97305 14.8C4.72305 14.2167 5.31055 13.5083 5.73555 12.675C6.16055 11.8417 6.37305 10.95 6.37305 10C6.37305 9.05 6.16055 8.15833 5.73555 7.325C5.31055 6.49167 4.72305 5.78333 3.97305 5.2C3.45638 5.9 3.06055 6.65833 2.78555 7.475C2.51055 8.29167 2.37305 9.13333 2.37305 10C2.37305 10.8667 2.51055 11.7083 2.78555 12.525C3.06055 13.3417 3.45638 14.1 3.97305 14.8ZM10.373 18C11.2897 18 12.1772 17.8542 13.0355 17.5625C13.8939 17.2708 14.673 16.8333 15.373 16.25C14.423 15.4833 13.6855 14.5542 13.1605 13.4625C12.6355 12.3708 12.373 11.2167 12.373 10C12.373 8.78333 12.6355 7.62917 13.1605 6.5375C13.6855 5.44583 14.423 4.51667 15.373 3.75C14.673 3.16667 13.8939 2.72917 13.0355 2.4375C12.1772 2.14583 11.2897 2 10.373 2C9.45638 2 8.56888 2.14583 7.71055 2.4375C6.85221 2.72917 6.07305 3.16667 5.37305 3.75C6.32305 4.51667 7.06055 5.44583 7.58555 6.5375C8.11055 7.62917 8.37305 8.78333 8.37305 10C8.37305 11.2167 8.11055 12.3708 7.58555 13.4625C7.06055 14.5542 6.32305 15.4833 5.37305 16.25C6.07305 16.8333 6.85221 17.2708 7.71055 17.5625C8.56888 17.8542 9.45638 18 10.373 18ZM16.773 14.8C17.2897 14.1 17.6855 13.3417 17.9605 12.525C18.2355 11.7083 18.373 10.8667 18.373 10C18.373 9.13333 18.2355 8.29167 17.9605 7.475C17.6855 6.65833 17.2897 5.9 16.773 5.2C16.023 5.78333 15.4355 6.49167 15.0105 7.325C14.5855 8.15833 14.373 9.05 14.373 10C14.373 10.95 14.5855 11.8417 15.0105 12.675C15.4355 13.5083 16.023 14.2167 16.773 14.8ZM10.373 20C8.98971 20 7.68971 19.7375 6.47305 19.2125C5.25638 18.6875 4.19805 17.975 3.29805 17.075C2.39805 16.175 1.68555 15.1167 1.16055 13.9C0.635547 12.6833 0.373047 11.3833 0.373047 10C0.373047 8.61667 0.635547 7.31667 1.16055 6.1C1.68555 4.88333 2.39805 3.825 3.29805 2.925C4.19805 2.025 5.25638 1.3125 6.47305 0.7875C7.68971 0.2625 8.98971 0 10.373 0C11.7564 0 13.0564 0.2625 14.273 0.7875C15.4897 1.3125 16.548 2.025 17.448 2.925C18.348 3.825 19.0605 4.88333 19.5855 6.1C20.1105 7.31667 20.373 8.61667 20.373 10C20.373 11.3833 20.1105 12.6833 19.5855 13.9C19.0605 15.1167 18.348 16.175 17.448 17.075C16.548 17.975 15.4897 18.6875 14.273 19.2125C13.0564 19.7375 11.7564 20 10.373 20Z" fill="#EF4868"/>
</svg>
