<svg width="14" height="15" viewBox="0 0 14 15" fill="none" xmlns="http://www.w3.org/2000/svg">
<path d="M10.0333 4.55331L5.63997 8.94665L3.24664 6.55998L2.30664 7.49998L5.63997 10.8333L10.9733 5.49998L10.0333 4.55331ZM6.97331 0.833313C3.29331 0.833313 0.306641 3.81998 0.306641 7.49998C0.306641 11.18 3.29331 14.1666 6.97331 14.1666C10.6533 14.1666 13.64 11.18 13.64 7.49998C13.64 3.81998 10.6533 0.833313 6.97331 0.833313ZM6.97331 12.8333C4.02664 12.8333 1.63997 10.4466 1.63997 7.49998C1.63997 4.55331 4.02664 2.16665 6.97331 2.16665C9.91997 2.16665 12.3066 4.55331 12.3066 7.49998C12.3066 10.4466 9.91997 12.8333 6.97331 12.8333Z" fill="#EF4868"/>
</svg>
