<svg width="20" height="21" viewBox="0 0 20 21" fill="none" xmlns="http://www.w3.org/2000/svg">
<path d="M18.65 8.37501L17.25 6.97501L18 6.20001L14.8 3.00001L14.025 3.75001L12.6 2.32501L13.35 1.55001C13.7334 1.16668 14.2084 0.979176 14.775 0.98751C15.3417 0.995843 15.8167 1.19168 16.2 1.57501L19.425 4.80001C19.8084 5.18334 20 5.65418 20 6.21251C20 6.77084 19.8084 7.24168 19.425 7.62501L18.65 8.37501ZM6.65002 20.4C6.26669 20.7833 5.79586 20.975 5.23752 20.975C4.67919 20.975 4.20836 20.7833 3.82502 20.4L0.600024 17.175C0.216691 16.7917 0.0250244 16.3208 0.0250244 15.7625C0.0250244 15.2042 0.216691 14.7333 0.600024 14.35L1.35002 13.6L2.77502 15.025L2.00002 15.775L5.22502 19L5.97502 18.225L7.40002 19.65L6.65002 20.4ZM16.575 12L18 10.575L10.425 3.00001L9.00002 4.42501L16.575 12ZM9.57502 19L11 17.55L3.45002 10L2.00002 11.425L9.57502 19ZM9.42502 13.15L12.175 10.425L10.575 8.82501L7.85002 11.575L9.42502 13.15ZM11 20.4C10.6167 20.7833 10.1417 20.975 9.57502 20.975C9.00836 20.975 8.53336 20.7833 8.15002 20.4L0.600024 12.85C0.216691 12.4667 0.0250244 11.9917 0.0250244 11.425C0.0250244 10.8583 0.216691 10.3833 0.600024 10L2.02502 8.57501C2.40836 8.19168 2.87919 8.00001 3.43752 8.00001C3.99586 8.00001 4.46669 8.19168 4.85002 8.57501L6.42502 10.15L9.17502 7.40001L7.60002 5.85001C7.21669 5.46668 7.02502 4.99168 7.02502 4.42501C7.02502 3.85834 7.21669 3.38334 7.60002 3.00001L9.02502 1.57501C9.40836 1.19168 9.87919 1.00001 10.4375 1.00001C10.9959 1.00001 11.4667 1.19168 11.85 1.57501L19.425 9.15001C19.8084 9.53334 20 10.0042 20 10.5625C20 11.1208 19.8084 11.5917 19.425 11.975L18 13.4C17.6167 13.7833 17.1417 13.975 16.575 13.975C16.0084 13.975 15.5334 13.7833 15.15 13.4L13.6 11.825L10.85 14.575L12.425 16.15C12.8084 16.5333 13 17.0042 13 17.5625C13 18.1208 12.8084 18.5917 12.425 18.975L11 20.4Z" fill="#EF4868"/>
</svg>
