<svg width="42" height="33" viewBox="0 0 42 33" fill="none" xmlns="http://www.w3.org/2000/svg">
<path fill-rule="evenodd" clip-rule="evenodd" d="M0 4.5C0 3.30653 0.474106 2.16193 1.31802 1.31802C2.16193 0.474106 3.30653 0 4.5 0H37.5C38.6935 0 39.8381 0.474106 40.682 1.31802C41.5259 2.16193 42 3.30653 42 4.5V28.5C42 29.6935 41.5259 30.8381 40.682 31.682C39.8381 32.5259 38.6935 33 37.5 33H4.5C3.30653 33 2.16193 32.5259 1.31802 31.682C0.474106 30.8381 0 29.6935 0 28.5V4.5ZM3 24.62V28.5C3 29.328 3.672 30 4.5 30H37.5C37.8978 30 38.2794 29.842 38.5607 29.5607C38.842 29.2794 39 28.8978 39 28.5V24.62L33.62 19.242C33.0575 18.6802 32.295 18.3646 31.5 18.3646C30.705 18.3646 29.9425 18.6802 29.38 19.242L27.62 21L29.56 22.94C29.7074 23.0773 29.8256 23.2429 29.9076 23.4269C29.9895 23.6109 30.0336 23.8095 30.0372 24.011C30.0407 24.2124 30.0037 24.4124 29.9282 24.5992C29.8528 24.786 29.7405 24.9556 29.5981 25.0981C29.4556 25.2405 29.286 25.3528 29.0992 25.4282C28.9124 25.5037 28.7124 25.5407 28.511 25.5372C28.3095 25.5336 28.1109 25.4895 27.9269 25.4076C27.7429 25.3256 27.5773 25.2074 27.44 25.06L17.12 14.742C16.5575 14.1802 15.795 13.8646 15 13.8646C14.205 13.8646 13.4425 14.1802 12.88 14.742L3 24.622V24.62ZM23.25 9C23.25 8.40326 23.4871 7.83097 23.909 7.40901C24.331 6.98705 24.9033 6.75 25.5 6.75C26.0967 6.75 26.669 6.98705 27.091 7.40901C27.5129 7.83097 27.75 8.40326 27.75 9C27.75 9.59674 27.5129 10.169 27.091 10.591C26.669 11.0129 26.0967 11.25 25.5 11.25C24.9033 11.25 24.331 11.0129 23.909 10.591C23.4871 10.169 23.25 9.59674 23.25 9Z" fill="#6B7280"/>
</svg>
