<svg width="21" height="20" viewBox="0 0 21 20" fill="none" xmlns="http://www.w3.org/2000/svg">
<path d="M4.58535 14.8C5.33535 14.2167 5.92302 13.5083 6.34835 12.675C6.77302 11.8417 6.98535 10.95 6.98535 10C6.98535 9.05 6.77302 8.15833 6.34835 7.325C5.92302 6.49167 5.33535 5.78333 4.58535 5.2C4.06868 5.9 3.67269 6.65833 3.39735 7.475C3.12268 8.29167 2.98535 9.13333 2.98535 10C2.98535 10.8667 3.12268 11.7083 3.39735 12.525C3.67269 13.3417 4.06868 14.1 4.58535 14.8ZM10.9854 18C11.902 18 12.7897 17.854 13.6484 17.562C14.5064 17.2707 15.2854 16.8333 15.9854 16.25C15.0354 15.4833 14.298 14.5543 13.7734 13.463C13.248 12.371 12.9854 11.2167 12.9854 10C12.9854 8.78333 13.248 7.629 13.7734 6.537C14.298 5.44567 15.0354 4.51667 15.9854 3.75C15.2854 3.16667 14.5064 2.72933 13.6484 2.438C12.7897 2.146 11.902 2 10.9854 2C10.0687 2 9.18135 2.146 8.32335 2.438C7.46469 2.72933 6.68535 3.16667 5.98535 3.75C6.93535 4.51667 7.67302 5.44567 8.19835 6.537C8.72302 7.629 8.98535 8.78333 8.98535 10C8.98535 11.2167 8.72302 12.371 8.19835 13.463C7.67302 14.5543 6.93535 15.4833 5.98535 16.25C6.68535 16.8333 7.46469 17.2707 8.32335 17.562C9.18135 17.854 10.0687 18 10.9854 18ZM17.3854 14.8C17.902 14.1 18.2977 13.3417 18.5724 12.525C18.8477 11.7083 18.9854 10.8667 18.9854 10C18.9854 9.13333 18.8477 8.29167 18.5724 7.475C18.2977 6.65833 17.902 5.9 17.3854 5.2C16.6354 5.78333 16.048 6.49167 15.6234 7.325C15.198 8.15833 14.9854 9.05 14.9854 10C14.9854 10.95 15.198 11.8417 15.6234 12.675C16.048 13.5083 16.6354 14.2167 17.3854 14.8ZM10.9854 20C9.60202 20 8.30202 19.7373 7.08535 19.212C5.86869 18.6873 4.81035 17.975 3.91035 17.075C3.01035 16.175 2.29802 15.1167 1.77335 13.9C1.24802 12.6833 0.985352 11.3833 0.985352 10C0.985352 8.61667 1.24802 7.31667 1.77335 6.1C2.29802 4.88333 3.01035 3.825 3.91035 2.925C4.81035 2.025 5.86869 1.31233 7.08535 0.787C8.30202 0.262333 9.60202 0 10.9854 0C12.3687 0 13.6687 0.262333 14.8854 0.787C16.102 1.31233 17.1604 2.025 18.0604 2.925C18.9604 3.825 19.6727 4.88333 20.1974 6.1C20.7227 7.31667 20.9854 8.61667 20.9854 10C20.9854 11.3833 20.7227 12.6833 20.1974 13.9C19.6727 15.1167 18.9604 16.175 18.0604 17.075C17.1604 17.975 16.102 18.6873 14.8854 19.212C13.6687 19.7373 12.3687 20 10.9854 20Z" fill="#EF4868"/>
</svg>
